<?xml version="1.0" standalone="no"?>
<!DOCTYPE svg PUBLIC "-//W3C//DTD SVG 20010904//EN"
 "http://www.w3.org/TR/2001/REC-SVG-20010904/DTD/svg10.dtd">
<svg version="1.0" xmlns="http://www.w3.org/2000/svg"
 width="1080.000000pt" height="1080.000000pt" viewBox="0 0 1080.000000 1080.000000"
 preserveAspectRatio="xMidYMid meet">

<g transform="translate(0.000000,1080.000000) scale(0.100000,-0.100000)"
fill="#000000" stroke="none">
<path d="M1298 8200 c-65 -11 -150 -40 -146 -50 2 -5 377 -327 833 -716 2290
-1952 2347 -2001 2895 -2469 179 -152 345 -287 370 -299 65 -31 235 -31 300 0
25 12 253 199 510 419 256 218 688 587 960 819 272 232 788 671 1145 976 358
305 837 714 1065 908 228 194 416 357 418 362 2 5 -27 19 -65 32 l-68 23
-4085 1 c-2247 1 -4106 -2 -4132 -6z"/>
<path d="M801 7794 c-12 -30 -26 -74 -31 -97 -6 -26 -10 -881 -10 -2297 0
-2510 -6 -2301 70 -2457 73 -148 210 -264 377 -319 l88 -29 4105 0 4105 0 88
29 c167 55 304 171 377 319 76 156 71 -56 68 2483 l-3 2279 -27 68 c-14 38
-28 71 -31 74 -3 3 -810 -681 -1794 -1518 -983 -838 -1912 -1630 -2064 -1759
-152 -129 -302 -250 -333 -269 -129 -77 -309 -116 -465 -100 -94 9 -229 53
-307 100 -60 37 -91 63 -1455 1224 -2409 2054 -2728 2325 -2733 2325 -2 0 -14
-25 -25 -56z"/>
</g>
</svg>
